
<svg version="1.0" xmlns="http://www.w3.org/2000/svg" 
 width="29px" height="29px" viewBox="0 0 69.000000 64.000000"
 preserveAspectRatio="xMidYMid meet">

<g transform="translate(0.000000,64.000000) scale(0.100000,-0.100000)"
fill="#000000" stroke="none">
<path d="M225 578 c-3 -7 -4 -130 -3 -273 3 -239 4 -260 21 -263 16 -3 17 13
15 269 -2 207 -6 273 -15 277 -7 2 -15 -2 -18 -10z"/>
<path d="M297 576 c-8 -19 -6 -20 86 -34 129 -20 207 -109 207 -237 0 -45 -30
-118 -63 -154 -35 -38 -115 -71 -174 -71 -47 0 -53 -2 -53 -21 0 -21 4 -21 68
-17 150 11 252 120 254 271 3 149 -99 257 -254 273 -55 5 -66 4 -71 -10z"/>
<path d="M157 573 c-4 -3 -7 -125 -7 -270 0 -247 1 -264 18 -261 16 3 17 25
20 259 2 206 0 258 -11 268 -8 6 -17 8 -20 4z"/>
<path d="M296 501 c-13 -20 3 -29 62 -33 72 -5 112 -31 143 -95 20 -42 21 -51
10 -92 -7 -28 -26 -60 -46 -81 -31 -30 -41 -34 -99 -38 -44 -3 -66 -9 -70 -19
-8 -20 16 -26 83 -21 102 7 173 86 174 193 1 108 -74 186 -188 193 -39 3 -65
0 -69 -7z"/>
</g>
</svg>
